<svg xmlns="http://www.w3.org/2000/svg" xmlns:xlink="http://www.w3.org/1999/xlink" contentStyleType="text/css" height="2007px" preserveAspectRatio="none" style="width:564px;height:2007px;background:#FFFFFF;" version="1.1" viewBox="0 0 564 2007" width="564px" zoomAndPan="magnify"><defs/><g><!--cluster PreOrder--><g id="cluster_PreOrder"><path d="M79.5,176 L456.5,176 A12.5,12.5 0 0 1 469,188.5 L469,197.2969 L67,197.2969 L67,188.5 A12.5,12.5 0 0 1 79.5,176 " fill="#F1F1F1" style="stroke:#F1F1F1;stroke-width:1.0;"/><rect fill="none" height="414" rx="12.5" ry="12.5" style="stroke:#181818;stroke-width:0.5;" width="402" x="67" y="176"/><line style="stroke:#181818;stroke-width:0.5;" x1="67" x2="469" y1="197.2969" y2="197.2969"/><text fill="#000000" font-family="sans-serif" font-size="14" lengthAdjust="spacing" textLength="194" x="171" y="193.9951">&#1055;&#1088;&#1080;&#1105;&#1084; &#1080; &#1086;&#1073;&#1088;&#1072;&#1073;&#1086;&#1090;&#1082;&#1072; &#1079;&#1072;&#1082;&#1072;&#1079;&#1072;</text></g><!--cluster Delivering--><g id="cluster_Delivering"><path d="M19.5,657 L275.5,657 A12.5,12.5 0 0 1 288,669.5 L288,678.2969 L7,678.2969 L7,669.5 A12.5,12.5 0 0 1 19.5,657 " fill="#F1F1F1" style="stroke:#F1F1F1;stroke-width:1.0;"/><rect fill="none" height="553" rx="12.5" ry="12.5" style="stroke:#181818;stroke-width:0.5;" width="281" x="7" y="657"/><line style="stroke:#181818;stroke-width:0.5;" x1="7" x2="288" y1="678.2969" y2="678.2969"/><text fill="#000000" font-family="sans-serif" font-size="14" lengthAdjust="spacing" textLength="70" x="112.5" y="674.9951">&#1044;&#1086;&#1089;&#1090;&#1072;&#1074;&#1082;&#1072;</text></g><!--cluster PAymentReversing--><g id="cluster_PAymentReversing"><path d="M219.5,1289 L427.5,1289 A12.5,12.5 0 0 1 440,1301.5 L440,1310.2969 L207,1310.2969 L207,1301.5 A12.5,12.5 0 0 1 219.5,1289 " fill="#F1F1F1" style="stroke:#F1F1F1;stroke-width:1.0;"/><rect fill="none" height="379" rx="12.5" ry="12.5" style="stroke:#181818;stroke-width:0.5;" width="233" x="207" y="1289"/><line style="stroke:#181818;stroke-width:0.5;" x1="207" x2="440" y1="1310.2969" y2="1310.2969"/><text fill="#000000" font-family="sans-serif" font-size="14" lengthAdjust="spacing" textLength="130" x="258.5" y="1305.9951">&#1042;&#1086;&#1079;&#1074;&#1088;&#1072;&#1090; &#1087;&#1083;&#1072;&#1090;&#1077;&#1078;&#1072;</text></g><g id="PreOrder.B"><rect fill="#F1F1F1" height="64.2344" rx="12.5" ry="12.5" style="stroke:#181818;stroke-width:0.5;" width="128" x="118" y="211"/><line style="stroke:#181818;stroke-width:0.5;" x1="118" x2="246" y1="237.2969" y2="237.2969"/><text fill="#000000" font-family="sans-serif" font-size="14" lengthAdjust="spacing" textLength="10" x="177" y="228.9951">B</text><text fill="#000000" font-family="sans-serif" font-size="12" lengthAdjust="spacing" textLength="38" x="123" y="253.4355">&#1058;&#1086;&#1074;&#1072;p</text><text fill="#000000" font-family="sans-serif" font-size="12" lengthAdjust="spacing" textLength="108" x="123" y="267.4043">&#1079;&#1072;&#1088;&#1077;&#1079;&#1077;&#1088;&#1074;&#1080;&#1088;&#1086;&#1074;&#1072;&#1085;</text></g><g id="PreOrder.C"><rect fill="#F1F1F1" height="50.2656" rx="12.5" ry="12.5" style="stroke:#181818;stroke-width:0.5;" width="123" x="83.5" y="367"/><line style="stroke:#181818;stroke-width:0.5;" x1="83.5" x2="206.5" y1="393.2969" y2="393.2969"/><text fill="#000000" font-family="sans-serif" font-size="14" lengthAdjust="spacing" textLength="10" x="140" y="384.9951">C</text><text fill="#000000" font-family="sans-serif" font-size="12" lengthAdjust="spacing" textLength="103" x="88.5" y="409.4355">&#1055;&#1083;&#1072;&#1090;&#1105;&#1078; &#1089;&#1086;&#1079;&#1076;&#1072;&#1085;</text></g><g id="PreOrder.D"><rect fill="#F1F1F1" height="50.2656" rx="12.5" ry="12.5" style="stroke:#181818;stroke-width:0.5;" width="83" x="103.5" y="524"/><line style="stroke:#181818;stroke-width:0.5;" x1="103.5" x2="186.5" y1="550.2969" y2="550.2969"/><text fill="#000000" font-family="sans-serif" font-size="14" lengthAdjust="spacing" textLength="11" x="139.5" y="541.9951">D</text><text fill="#000000" font-family="sans-serif" font-size="12" lengthAdjust="spacing" textLength="63" x="108.5" y="566.4355">&#1054;&#1087;&#1083;&#1072;&#1095;&#1077;&#1085;&#1086;</text></g><text fill="#000000" font-family="sans-serif" font-size="14" lengthAdjust="spacing" textLength="107" x="415.5" y="410.9951">outReturnStore</text><ellipse cx="469" cy="392" fill="#F1F1F1" rx="6" ry="6" style="stroke:#181818;stroke-width:1.5;"/><line style="stroke:#181818;stroke-width:1.5;" x1="473.3891" x2="465.6109" y1="396.3891" y2="388.6109"/><line style="stroke:#181818;stroke-width:1.5;" x1="473.3891" x2="465.6109" y1="388.6109" y2="396.3891"/><text fill="#000000" font-family="sans-serif" font-size="14" lengthAdjust="spacing" textLength="36" x="77" y="635.6982">&#1042;&#1093;&#1086;&#1076;</text><ellipse cx="95" cy="657" fill="#F1F1F1" rx="6" ry="6" style="stroke:#181818;stroke-width:1.5;"/><g id="Delivering.E"><rect fill="#F1F1F1" height="64.2344" rx="12.5" ry="12.5" style="stroke:#181818;stroke-width:0.5;" width="121" x="34.5" y="729"/><line style="stroke:#181818;stroke-width:0.5;" x1="34.5" x2="155.5" y1="755.2969" y2="755.2969"/><text fill="#000000" font-family="sans-serif" font-size="14" lengthAdjust="spacing" textLength="9" x="90.5" y="746.9951">E</text><text fill="#000000" font-family="sans-serif" font-size="12" lengthAdjust="spacing" textLength="38" x="39.5" y="771.4355">&#1047;&#1072;&#1082;&#1072;&#1079;</text><text fill="#000000" font-family="sans-serif" font-size="12" lengthAdjust="spacing" textLength="101" x="39.5" y="785.4043">&#1089;&#1082;&#1086;&#1084;&#1087;&#1083;&#1077;&#1082;&#1090;&#1086;&#1074;&#1072;&#1085;</text></g><g id="Delivering.F"><rect fill="#F1F1F1" height="78.2031" rx="12.5" ry="12.5" style="stroke:#181818;stroke-width:0.5;" width="77" x="56.5" y="900"/><line style="stroke:#181818;stroke-width:0.5;" x1="56.5" x2="133.5" y1="926.2969" y2="926.2969"/><text fill="#000000" font-family="sans-serif" font-size="14" lengthAdjust="spacing" textLength="8" x="91" y="917.9951">F</text><text fill="#000000" font-family="sans-serif" font-size="12" lengthAdjust="spacing" textLength="38" x="61.5" y="942.4355">&#1047;&#1072;&#1082;&#1072;&#1079;</text><text fill="#000000" font-family="sans-serif" font-size="12" lengthAdjust="spacing" textLength="57" x="61.5" y="956.4043">&#1087;&#1077;&#1088;&#1077;&#1076;&#1072;&#1085;</text><text fill="#000000" font-family="sans-serif" font-size="12" lengthAdjust="spacing" textLength="50" x="61.5" y="970.373">&#1082;&#1091;&#1088;&#1100;&#1077;&#1088;&#1091;</text></g><g id="Delivering.G"><rect fill="#F1F1F1" height="64.2344" rx="12.5" ry="12.5" style="stroke:#181818;stroke-width:0.5;" width="121" x="23.5" y="1046"/><line style="stroke:#181818;stroke-width:0.5;" x1="23.5" x2="144.5" y1="1072.2969" y2="1072.2969"/><text fill="#000000" font-family="sans-serif" font-size="14" lengthAdjust="spacing" textLength="11" x="78.5" y="1063.9951">G</text><text fill="#000000" font-family="sans-serif" font-size="12" lengthAdjust="spacing" textLength="64" x="28.5" y="1088.4355">&#1044;&#1086;&#1089;&#1090;&#1072;&#1074;&#1082;&#1072;</text><text fill="#000000" font-family="sans-serif" font-size="12" lengthAdjust="spacing" textLength="101" x="28.5" y="1102.4043">&#1087;&#1086;&#1076;&#1090;&#1074;&#1077;&#1088;&#1078;&#1076;&#1077;&#1085;&#1072;</text></g><g id="Delivering.H"><rect fill="#F1F1F1" height="78.2031" rx="12.5" ry="12.5" style="stroke:#181818;stroke-width:0.5;" width="93" x="179.5" y="1039"/><line style="stroke:#181818;stroke-width:0.5;" x1="179.5" x2="272.5" y1="1065.2969" y2="1065.2969"/><text fill="#000000" font-family="sans-serif" font-size="14" lengthAdjust="spacing" textLength="10" x="221" y="1056.9951">H</text><text fill="#000000" font-family="sans-serif" font-size="12" lengthAdjust="spacing" textLength="38" x="184.5" y="1081.4355">&#1058;&#1086;&#1074;&#1072;&#1088;</text><text fill="#000000" font-family="sans-serif" font-size="12" lengthAdjust="spacing" textLength="73" x="184.5" y="1095.4043">&#1074;&#1086;&#1079;&#1074;&#1088;&#1072;&#1097;&#1105;&#1085;</text><text fill="#000000" font-family="sans-serif" font-size="12" lengthAdjust="spacing" textLength="66" x="184.5" y="1109.373">&#1074; &#1084;&#1072;&#1075;&#1072;&#1079;&#1080;&#1085;</text></g><text fill="#000000" font-family="sans-serif" font-size="14" lengthAdjust="spacing" textLength="61" x="200.5" y="1228.9951">&#1042;&#1086;&#1079;&#1074;&#1088;&#1072;&#1090;</text><text fill="#000000" font-family="sans-serif" font-size="14" lengthAdjust="spacing" textLength="51" x="205.5" y="1245.292">&#1090;&#1086;&#1074;&#1072;&#1088;&#1072;</text><ellipse cx="231" cy="1210" fill="#F1F1F1" rx="6" ry="6" style="stroke:#181818;stroke-width:1.5;"/><line style="stroke:#181818;stroke-width:1.5;" x1="235.3891" x2="227.6109" y1="1214.3891" y2="1206.6109"/><line style="stroke:#181818;stroke-width:1.5;" x1="235.3891" x2="227.6109" y1="1206.6109" y2="1214.3891"/><text fill="#000000" font-family="sans-serif" font-size="14" lengthAdjust="spacing" textLength="90" x="50.5" y="1228.9951">&#1048;&#1089;&#1087;&#1086;&#1083;&#1085;&#1077;&#1085;&#1080;&#1077;</text><text fill="#000000" font-family="sans-serif" font-size="14" lengthAdjust="spacing" textLength="48" x="71.5" y="1245.292">&#1079;&#1072;&#1082;&#1072;&#1079;&#1072;</text><ellipse cx="95.5" cy="1210" fill="#F1F1F1" rx="6" ry="6" style="stroke:#181818;stroke-width:1.5;"/><line style="stroke:#181818;stroke-width:1.5;" x1="99.8891" x2="92.1109" y1="1214.3891" y2="1206.6109"/><line style="stroke:#181818;stroke-width:1.5;" x1="99.8891" x2="92.1109" y1="1206.6109" y2="1214.3891"/><g id="PAymentReversing.K"><rect fill="#F1F1F1" height="64.2344" rx="12.5" ry="12.5" style="stroke:#181818;stroke-width:0.5;" width="137" x="223.5" y="1324"/><line style="stroke:#181818;stroke-width:0.5;" x1="223.5" x2="360.5" y1="1350.2969" y2="1350.2969"/><text fill="#000000" font-family="sans-serif" font-size="14" lengthAdjust="spacing" textLength="9" x="287.5" y="1341.9951">K</text><text fill="#000000" font-family="sans-serif" font-size="12" lengthAdjust="spacing" textLength="70" x="228.5" y="1366.4355">&#1043;&#1086;&#1090;&#1086;&#1074;&#1080;&#1090;&#1089;&#1103;</text><text fill="#000000" font-family="sans-serif" font-size="12" lengthAdjust="spacing" textLength="117" x="228.5" y="1380.4043">&#1074;&#1086;&#1079;&#1074;&#1088;&#1072;&#1090; &#1087;&#1083;&#1072;&#1090;&#1077;&#1078;&#1072;</text></g><g id="PAymentReversing.J"><rect fill="#F1F1F1" height="78.2031" rx="12.5" ry="12.5" style="stroke:#181818;stroke-width:0.5;" width="79" x="273.5" y="1449"/><line style="stroke:#181818;stroke-width:0.5;" x1="273.5" x2="352.5" y1="1475.2969" y2="1475.2969"/><text fill="#000000" font-family="sans-serif" font-size="14" lengthAdjust="spacing" textLength="3" x="311.5" y="1466.9951">J</text><text fill="#000000" font-family="sans-serif" font-size="12" lengthAdjust="spacing" textLength="55" x="278.5" y="1491.4355">&#1042;&#1086;&#1079;&#1074;&#1088;&#1072;&#1090;</text><text fill="#000000" font-family="sans-serif" font-size="12" lengthAdjust="spacing" textLength="59" x="278.5" y="1505.4043">&#1087;&#1083;&#1072;&#1090;&#1077;&#1078;&#1072;</text><text fill="#000000" font-family="sans-serif" font-size="12" lengthAdjust="spacing" textLength="47" x="278.5" y="1519.373">&#1089;&#1086;&#1079;&#1076;&#1072;&#1085;</text></g><g id="PAymentReversing.L"><rect fill="#F1F1F1" height="64.2344" rx="12.5" ry="12.5" style="stroke:#181818;stroke-width:0.5;" width="93" x="322.5" y="1588"/><line style="stroke:#181818;stroke-width:0.5;" x1="322.5" x2="415.5" y1="1614.2969" y2="1614.2969"/><text fill="#000000" font-family="sans-serif" font-size="14" lengthAdjust="spacing" textLength="7" x="365.5" y="1605.9951">L</text><text fill="#000000" font-family="sans-serif" font-size="12" lengthAdjust="spacing" textLength="52" x="327.5" y="1630.4355">&#1055;&#1083;&#1072;&#1090;&#1105;&#1078;</text><text fill="#000000" font-family="sans-serif" font-size="12" lengthAdjust="spacing" textLength="73" x="327.5" y="1644.4043">&#1074;&#1086;&#1079;&#1074;&#1088;&#1072;&#1097;&#1077;&#1085;</text></g><ellipse cx="369" cy="16" fill="#222222" rx="10" ry="10" style="stroke:#222222;stroke-width:1.0;"/><g id="A"><rect fill="#F1F1F1" height="50.2656" rx="12.5" ry="12.5" style="stroke:#181818;stroke-width:0.5;" width="109" x="314.5" y="87"/><line style="stroke:#181818;stroke-width:0.5;" x1="314.5" x2="423.5" y1="113.2969" y2="113.2969"/><text fill="#000000" font-family="sans-serif" font-size="14" lengthAdjust="spacing" textLength="9" x="364.5" y="104.9951">A</text><text fill="#000000" font-family="sans-serif" font-size="12" lengthAdjust="spacing" textLength="89" x="319.5" y="129.4355">&#1047;&#1072;&#1082;&#1072;&#1079; &#1089;&#1086;&#1079;&#1076;&#1072;&#1085;</text></g><g id="I"><rect fill="#F1F1F1" height="64.2344" rx="12.5" ry="12.5" style="stroke:#181818;stroke-width:0.5;" width="121" x="296.5" y="1178"/><line style="stroke:#181818;stroke-width:0.5;" x1="296.5" x2="417.5" y1="1204.2969" y2="1204.2969"/><text fill="#000000" font-family="sans-serif" font-size="14" lengthAdjust="spacing" textLength="3" x="355.5" y="1195.9951">I</text><text fill="#000000" font-family="sans-serif" font-size="12" lengthAdjust="spacing" textLength="58" x="301.5" y="1220.4355">&#1047;&#1072;&#1082;&#1072;&#1079; &#1085;&#1077;</text><text fill="#000000" font-family="sans-serif" font-size="12" lengthAdjust="spacing" textLength="101" x="301.5" y="1234.4043">&#1089;&#1082;&#1086;&#1084;&#1087;&#1083;&#1077;&#1082;&#1090;&#1086;&#1074;&#1072;&#1085;</text></g><g id="M"><rect fill="#F1F1F1" height="78.2031" rx="12.5" ry="12.5" style="stroke:#181818;stroke-width:0.5;" width="86" x="394" y="1715"/><line style="stroke:#181818;stroke-width:0.5;" x1="394" x2="480" y1="1741.2969" y2="1741.2969"/><text fill="#000000" font-family="sans-serif" font-size="14" lengthAdjust="spacing" textLength="12" x="431" y="1732.9951">M</text><text fill="#000000" font-family="sans-serif" font-size="12" lengthAdjust="spacing" textLength="46" x="399" y="1757.4355">&#1056;&#1077;&#1079;&#1077;&#1088;&#1074;</text><text fill="#000000" font-family="sans-serif" font-size="12" lengthAdjust="spacing" textLength="66" x="399" y="1771.4043">&#1074;&#1086;&#1079;&#1088;&#1072;&#1097;&#1077;&#1085;</text><text fill="#000000" font-family="sans-serif" font-size="12" lengthAdjust="spacing" textLength="58" x="399" y="1785.373">&#1085;&#1072; &#1089;&#1082;&#1083;&#1072;&#1076;</text></g><g id="N"><rect fill="#F1F1F1" height="64.2344" rx="12.5" ry="12.5" style="stroke:#181818;stroke-width:0.5;" width="78" x="398" y="1854"/><line style="stroke:#181818;stroke-width:0.5;" x1="398" x2="476" y1="1880.2969" y2="1880.2969"/><text fill="#000000" font-family="sans-serif" font-size="14" lengthAdjust="spacing" textLength="10" x="432" y="1871.9951">N</text><text fill="#000000" font-family="sans-serif" font-size="12" lengthAdjust="spacing" textLength="38" x="403" y="1896.4355">&#1047;&#1072;&#1082;&#1072;&#1079;</text><text fill="#000000" font-family="sans-serif" font-size="12" lengthAdjust="spacing" textLength="58" x="403" y="1910.4043">&#1086;&#1090;&#1084;&#1077;&#1085;&#1105;&#1085;</text></g><g id="O"><rect fill="#F1F1F1" height="64.2344" rx="12.5" ry="12.5" style="stroke:#181818;stroke-width:0.5;" width="82" x="77" y="1324"/><line style="stroke:#181818;stroke-width:0.5;" x1="77" x2="159" y1="1350.2969" y2="1350.2969"/><text fill="#000000" font-family="sans-serif" font-size="14" lengthAdjust="spacing" textLength="11" x="112.5" y="1341.9951">O</text><text fill="#000000" font-family="sans-serif" font-size="12" lengthAdjust="spacing" textLength="38" x="82" y="1366.4355">&#1047;&#1072;&#1082;&#1072;&#1079;</text><text fill="#000000" font-family="sans-serif" font-size="12" lengthAdjust="spacing" textLength="62" x="82" y="1380.4043">&#1080;&#1089;&#1087;&#1086;&#1083;&#1085;&#1077;&#1085;</text></g><ellipse cx="166" cy="1990" fill="none" rx="11" ry="11" style="stroke:#222222;stroke-width:1.0;"/><ellipse cx="166" cy="1990" fill="#222222" rx="6" ry="6" style="stroke:#222222;stroke-width:1.0;"/><!--link *start* to A--><g id="link_*start*_A"><path d="M369,26.01 C369,39.89 369,60.97 369,80.84 " fill="none" id="*start*-to-A" style="stroke:#181818;stroke-width:1.0;"/><polygon fill="#181818" points="369,86.84,373,77.84,369,81.84,365,77.84,369,86.84" style="stroke:#181818;stroke-width:1.0;"/></g><!--link A to B--><g id="link_A_B"><path d="M333.83,137.26 C303.57,158.14 264.6786,184.9627 231.8786,207.5927 " fill="none" id="A-to-B" style="stroke:#181818;stroke-width:1.0;"/><polygon fill="#181818" points="226.94,211,236.6195,209.1814,231.0555,208.1605,232.0764,202.5966,226.94,211" style="stroke:#181818;stroke-width:1.0;"/></g><!--reverse link B to B--><g id="link_B_B"><path d="M252.2691,229.2547 C271.7591,229.5947 281,234.11 281,243 C281,251.89 265.76,256.51 246.27,256.85 " fill="none" id="B-backto-B" style="stroke:#181818;stroke-width:1.0;"/><polygon fill="#181818" points="246.27,229.15,255.1989,233.3064,251.2692,229.2372,255.3384,225.3076,246.27,229.15" style="stroke:#181818;stroke-width:1.0;"/><text fill="#000000" font-family="sans-serif" font-size="13" lengthAdjust="spacing" textLength="33" x="287" y="247.5669">Retry</text></g><!--link B to C--><g id="link_B_C"><path d="M138.72,275.07 C129.91,283.68 121.86,293.78 117,305 C108.2,325.32 114.5651,344.1583 124.7751,361.6483 " fill="none" id="B-to-C" style="stroke:#181818;stroke-width:1.0;"/><polygon fill="#181818" points="127.8,366.83,126.7171,357.0409,125.2793,362.5119,119.8082,361.074,127.8,366.83" style="stroke:#181818;stroke-width:1.0;"/><text fill="#000000" font-family="sans-serif" font-size="13" lengthAdjust="spacing" textLength="54" x="118" y="318.0669">&#1055;&#1083;&#1072;&#1090;&#1105;&#1078;</text><text fill="#000000" font-family="sans-serif" font-size="13" lengthAdjust="spacing" textLength="48" x="121" y="333.1997">&#1089;&#1086;&#1079;&#1076;&#1072;&#1085;</text></g><!--reverse link C to C--><g id="link_C_C"><path d="M212.7197,378.9417 C232.1597,379.1417 241.5,383.46 241.5,392 C241.5,400.54 226.16,404.92 206.72,405.12 " fill="none" id="C-backto-C" style="stroke:#181818;stroke-width:1.0;"/><polygon fill="#181818" points="206.72,378.88,215.6784,382.9724,211.7197,378.9314,215.7607,374.9728,206.72,378.88" style="stroke:#181818;stroke-width:1.0;"/><text fill="#000000" font-family="sans-serif" font-size="13" lengthAdjust="spacing" textLength="33" x="247.5" y="396.5669">Retry</text></g><!--link C to D--><g id="link_C_D"><path d="M83.31,411.14 C66.32,419.28 49.88,430.81 40,447 C29.12,464.83 29.12,476.17 40,494 C53.77,516.57 74.6544,528.1637 97.6044,536.0337 " fill="none" id="C-to-D" style="stroke:#181818;stroke-width:1.0;"/><polygon fill="#181818" points="103.28,537.98,96.0642,531.2769,98.5504,536.3581,93.4691,538.8443,103.28,537.98" style="stroke:#181818;stroke-width:1.0;"/><text fill="#000000" font-family="sans-serif" font-size="13" lengthAdjust="spacing" textLength="52" x="71.5" y="460.0669">&#1055;&#1088;&#1080;&#1096;&#1083;&#1086;</text><text fill="#000000" font-family="sans-serif" font-size="13" lengthAdjust="spacing" textLength="113" x="41" y="475.1997">&#1087;&#1086;&#1076;&#1090;&#1074;&#1077;&#1088;&#1078;&#1076;&#1077;&#1085;&#1080;&#1077;</text><text fill="#000000" font-family="sans-serif" font-size="13" lengthAdjust="spacing" textLength="61" x="67" y="490.3325">&#1087;&#1083;&#1072;&#1090;&#1077;&#1078;&#1072;</text></g><!--reverse link D to D--><g id="link_D_D"><path d="M192.6998,537.2099 C211.3498,536.1199 221.5,540.28 221.5,549 C221.5,557.72 205.36,561.53 186.71,560.44 " fill="none" id="D-backto-D" style="stroke:#181818;stroke-width:1.0;"/><polygon fill="#181818" points="186.71,537.56,195.928,541.0281,191.7015,537.2683,195.4613,533.0417,186.71,537.56" style="stroke:#181818;stroke-width:1.0;"/><text fill="#000000" font-family="sans-serif" font-size="13" lengthAdjust="spacing" textLength="33" x="227.5" y="553.5669">Retry</text></g><!--link C to outReturnStore--><g id="link_C_outReturnStore"><path d="M206.56,379.63 C222.57,376.88 239.88,374.38 256,373 C307.37,368.6 320.69,367.97 372,373 C407.17,376.45 442.7585,385.3094 457.0485,389.0794 " fill="none" id="C-to-outReturnStore" style="stroke:#181818;stroke-width:1.0;"/><polygon fill="#181818" points="462.85,390.61,455.1681,384.4465,458.0154,389.3345,453.1274,392.1818,462.85,390.61" style="stroke:#181818;stroke-width:1.0;"/><text fill="#000000" font-family="sans-serif" font-size="13" lengthAdjust="spacing" textLength="114" x="257" y="336.0669">&#1055;&#1086;&#1076;&#1090;&#1074;&#1077;&#1088;&#1078;&#1076;&#1077;&#1085;&#1080;&#1077;</text><text fill="#000000" font-family="sans-serif" font-size="13" lengthAdjust="spacing" textLength="61" x="283.5" y="351.1997">&#1087;&#1083;&#1072;&#1090;&#1077;&#1078;&#1072;</text><text fill="#000000" font-family="sans-serif" font-size="13" lengthAdjust="spacing" textLength="71" x="278.5" y="366.3325">&#1085;&#1077; &#1087;&#1088;&#1080;&#1096;&#1083;&#1086;</text></g><!--link B to outReturnStore--><g id="link_B_outReturnStore"><path d="M242.87,275.17 C316.58,312.93 429.0897,370.5548 457.3997,385.0548 " fill="none" id="B-to-outReturnStore" style="stroke:#181818;stroke-width:1.0;"/><polygon fill="#181818" points="462.74,387.79,456.5531,380.127,458.2898,385.5107,452.9061,387.2474,462.74,387.79" style="stroke:#181818;stroke-width:1.0;"/><text fill="#000000" font-family="sans-serif" font-size="13" lengthAdjust="spacing" textLength="74" x="362" y="318.0669">&#1055;&#1083;&#1072;&#1090;&#1105;&#1078; &#1085;&#1077;</text><text fill="#000000" font-family="sans-serif" font-size="13" lengthAdjust="spacing" textLength="78" x="360" y="333.1997">&#1073;&#1099;&#1083; &#1089;&#1086;&#1079;&#1076;&#1072;&#1085;</text></g><!--link D to I--><g id="link_D_I"><path d="M167.41,574.23 C174.37,580.36 182.47,586.26 191,590 C242.19,612.47 271.2,570.57 316,604 C336.11,619.01 338,630.91 338,656 C338,656 338,656 338,1079 C338,1113.1 343.2719,1145.8329 348.6619,1172.0529 " fill="none" id="D-to-I" style="stroke:#181818;stroke-width:1.0;"/><polygon fill="#181818" points="349.87,1177.93,351.9759,1168.3089,348.8632,1173.0324,344.1397,1169.9198,349.87,1177.93" style="stroke:#181818;stroke-width:1.0;"/><text fill="#000000" font-family="sans-serif" font-size="13" lengthAdjust="spacing" textLength="78" x="357" y="836.0669">&#1053;&#1077; &#1091;&#1076;&#1072;&#1083;&#1086;&#1089;&#1100;</text><text fill="#000000" font-family="sans-serif" font-size="13" lengthAdjust="spacing" textLength="114" x="339" y="851.1997">&#1089;&#1082;&#1086;&#1084;&#1087;&#1083;&#1077;&#1082;&#1090;&#1086;&#1074;&#1072;&#1090;&#1100;</text><text fill="#000000" font-family="sans-serif" font-size="13" lengthAdjust="spacing" textLength="38" x="377" y="866.3325">&#1079;&#1072;&#1082;&#1072;&#1079;</text></g><!--link outReturnStore to M--><g id="link_outReturnStore_M"><path d="M469.45,398.08 C471.15,417.51 477,488.99 477,548 C477,548 477,548 477,1621 C477,1653.69 467.9071,1683.4889 457.2871,1709.3789 " fill="none" id="outReturnStore-to-M" style="stroke:#181818;stroke-width:1.0;"/><polygon fill="#181818" points="455.01,1714.93,462.1263,1708.1213,456.9075,1710.3041,454.7248,1705.0853,455.01,1714.93" style="stroke:#181818;stroke-width:1.0;"/></g><!--link D to inOrderProcessing--><g id="link_D_inOrderProcessing"><path d="M113.52,574.04 C104.88,582.47 96.62,592.69 92,604 C85.43,620.07 88.6649,635.5463 91.5649,645.1463 " fill="none" id="D-to-inOrderProcessing" style="stroke:#181818;stroke-width:1.0;"/><polygon fill="#181818" points="93.3,650.89,94.5265,641.1178,91.8541,646.1036,86.8683,643.4312,93.3,650.89" style="stroke:#181818;stroke-width:1.0;"/><text fill="#000000" font-family="sans-serif" font-size="13" lengthAdjust="spacing" textLength="218" x="93" y="617.0669">&#1059;&#1089;&#1087;&#1077;&#1096;&#1085;&#1072;&#1103; &#1082;&#1086;&#1084;&#1087;&#1083;&#1077;&#1082;&#1090;&#1072;&#1094;&#1080;&#1103; &#1079;&#1072;&#1082;&#1072;&#1079;&#1072;</text></g><!--link inOrderProcessing to E--><g id="link_inOrderProcessing_E"><path d="M95,663.2 C95,675.13 95,699.28 95,722.79 " fill="none" id="inOrderProcessing-to-E" style="stroke:#181818;stroke-width:1.0;"/><polygon fill="#181818" points="95,728.79,99,719.79,95,723.79,91,719.79,95,728.79" style="stroke:#181818;stroke-width:1.0;"/></g><!--reverse link E to E--><g id="link_E_E"><path d="M161.6199,748.667 C181.0799,748.787 190.5,752.88 190.5,761 C190.5,769.12 175.08,773.25 155.62,773.37 " fill="none" id="E-backto-E" style="stroke:#181818;stroke-width:1.0;"/><polygon fill="#181818" points="155.62,748.63,164.5952,752.6854,160.6199,748.6608,164.6445,744.6856,155.62,748.63" style="stroke:#181818;stroke-width:1.0;"/><text fill="#000000" font-family="sans-serif" font-size="13" lengthAdjust="spacing" textLength="33" x="196.5" y="765.5669">Retry</text></g><!--link E to F--><g id="link_E_F"><path d="M95,793.06 C95,822.86 95,861.93 95,893.89 " fill="none" id="E-to-F" style="stroke:#181818;stroke-width:1.0;"/><polygon fill="#181818" points="95,899.89,99,890.89,95,894.89,91,890.89,95,899.89" style="stroke:#181818;stroke-width:1.0;"/></g><!--link F to G--><g id="link_F_G"><path d="M91.94,978.16 C90.22,999.54 88.592,1019.8794 86.972,1039.9794 " fill="none" id="F-to-G" style="stroke:#181818;stroke-width:1.0;"/><polygon fill="#181818" points="86.49,1045.96,91.2001,1037.3104,86.8917,1040.9762,83.226,1036.6677,86.49,1045.96" style="stroke:#181818;stroke-width:1.0;"/></g><!--link F to H--><g id="link_F_H"><path d="M131.49,978.16 C149.51,997.01 167.0538,1015.3531 185.1038,1034.2331 " fill="none" id="F-to-H" style="stroke:#181818;stroke-width:1.0;"/><polygon fill="#181818" points="189.25,1038.57,185.9219,1029.3005,185.7948,1034.9559,180.1394,1034.8288,189.25,1038.57" style="stroke:#181818;stroke-width:1.0;"/></g><!--link H to outOrderProcessingReturn--><g id="link_H_outOrderProcessingReturn"><path d="M227.47,1117.3 C228.67,1148.46 230.0194,1183.5244 230.5694,1197.8244 " fill="none" id="H-to-outOrderProcessingReturn" style="stroke:#181818;stroke-width:1.0;"/><polygon fill="#181818" points="230.8,1203.82,234.4511,1194.6729,230.6078,1198.8237,226.4571,1194.9804,230.8,1203.82" style="stroke:#181818;stroke-width:1.0;"/></g><!--link G to outOrderProcessingDone--><g id="link_G_outOrderProcessingDone"><path d="M86.87,1110.14 C89.79,1141.69 93.5095,1182.0253 94.9495,1197.6553 " fill="none" id="G-to-outOrderProcessingDone" style="stroke:#181818;stroke-width:1.0;"/><polygon fill="#181818" points="95.5,1203.63,98.6575,1194.301,95.0413,1198.6511,90.6912,1195.0349,95.5,1203.63" style="stroke:#181818;stroke-width:1.0;"/></g><!--link outOrderProcessingReturn to K--><g id="link_outOrderProcessingReturn_K"><path d="M233.17,1216.13 C240.37,1233.11 261.4802,1282.955 276.5102,1318.445 " fill="none" id="outOrderProcessingReturn-to-K" style="stroke:#181818;stroke-width:1.0;"/><polygon fill="#181818" points="278.85,1323.97,279.0236,1314.1227,276.9001,1319.3659,271.657,1317.2424,278.85,1323.97" style="stroke:#181818;stroke-width:1.0;"/></g><!--link I to K--><g id="link_I_K"><path d="M342.9,1242.25 C331.99,1266.4 319.4373,1294.2108 308.5473,1318.3508 " fill="none" id="I-to-K" style="stroke:#181818;stroke-width:1.0;"/><polygon fill="#181818" points="306.08,1323.82,313.4271,1317.261,308.1361,1319.2623,306.1348,1313.9713,306.08,1323.82" style="stroke:#181818;stroke-width:1.0;"/></g><!--reverse link K to K--><g id="link_K_K"><path d="M366.6784,1344.5573 C386.3384,1345.0073 395.5,1348.73 395.5,1356 C395.5,1363.27 380.34,1367.13 360.68,1367.58 " fill="none" id="K-backto-K" style="stroke:#181818;stroke-width:1.0;"/><polygon fill="#181818" points="360.68,1344.42,369.5861,1348.6249,365.6787,1344.5344,369.7692,1340.627,360.68,1344.42" style="stroke:#181818;stroke-width:1.0;"/><text fill="#000000" font-family="sans-serif" font-size="13" lengthAdjust="spacing" textLength="33" x="401.5" y="1360.5669">Retry</text></g><!--link K to J--><g id="link_K_J"><path d="M297.03,1388.14 C299.97,1406.32 302.7315,1423.4771 305.8515,1442.7571 " fill="none" id="K-to-J" style="stroke:#181818;stroke-width:1.0;"/><polygon fill="#181818" points="306.81,1448.68,309.3209,1439.1566,306.0113,1443.7442,301.4236,1440.4346,306.81,1448.68" style="stroke:#181818;stroke-width:1.0;"/></g><!--reverse link J to J--><g id="link_J_J"><path d="M358.8438,1475.0599 C377.3338,1473.6999 387.5,1478.3 387.5,1488 C387.5,1497.7 371.35,1501.86 352.86,1500.5 " fill="none" id="J-backto-J" style="stroke:#181818;stroke-width:1.0;"/><polygon fill="#181818" points="352.86,1475.5,362.1292,1478.829,357.8465,1475.1332,361.5423,1470.8506,352.86,1475.5" style="stroke:#181818;stroke-width:1.0;"/><text fill="#000000" font-family="sans-serif" font-size="13" lengthAdjust="spacing" textLength="33" x="393.5" y="1492.5669">Retry</text></g><!--link J to L--><g id="link_J_L"><path d="M329.5,1527.3 C337.82,1546.62 345.4152,1564.25 353.2552,1582.44 " fill="none" id="J-to-L" style="stroke:#181818;stroke-width:1.0;"/><polygon fill="#181818" points="355.63,1587.95,355.7411,1578.1018,353.651,1583.3583,348.3944,1581.2682,355.63,1587.95" style="stroke:#181818;stroke-width:1.0;"/></g><!--link L to M--><g id="link_L_M"><path d="M385.12,1652.28 C394.78,1671.04 404.3825,1689.6861 414.6125,1709.5461 " fill="none" id="L-to-M" style="stroke:#181818;stroke-width:1.0;"/><polygon fill="#181818" points="417.36,1714.88,416.7946,1705.0474,415.0704,1710.435,409.6827,1708.7108,417.36,1714.88" style="stroke:#181818;stroke-width:1.0;"/></g><!--link M to N--><g id="link_M_N"><path d="M437,1793.3 C437,1812.62 437,1829.76 437,1847.95 " fill="none" id="M-to-N" style="stroke:#181818;stroke-width:1.0;"/><polygon fill="#181818" points="437,1853.95,441,1844.95,437,1848.95,433,1844.95,437,1853.95" style="stroke:#181818;stroke-width:1.0;"/></g><!--link A to N--><g id="link_A_N"><path d="M423.63,125.63 C479.14,142.08 557,176.79 557,242 C557,242 557,242 557,1755 C557,1803.53 516.3639,1838.4776 481.3639,1860.5676 " fill="none" id="A-to-N" style="stroke:#181818;stroke-width:1.0;"/><polygon fill="#181818" points="476.29,1863.77,486.0358,1862.3491,480.5183,1861.1014,481.766,1855.5838,476.29,1863.77" style="stroke:#181818;stroke-width:1.0;"/></g><!--link outOrderProcessingDone to O--><g id="link_outOrderProcessingDone_O"><path d="M96.78,1216.13 C99.38,1233.11 106.9342,1282.5488 112.3542,1318.0388 " fill="none" id="outOrderProcessingDone-to-O" style="stroke:#181818;stroke-width:1.0;"/><polygon fill="#181818" points="113.26,1323.97,115.8554,1314.4693,112.5052,1319.0273,107.9471,1315.677,113.26,1323.97" style="stroke:#181818;stroke-width:1.0;"/></g><!--link O to *end*--><g id="link_O_*end*"><path d="M128.59,1388.12 C136.51,1414.21 146,1452.6 146,1487 C146,1487 146,1487 146,1887 C146,1921.47 155.3302,1955.5563 160.9902,1973.5563 " fill="none" id="O-to-*end*" style="stroke:#181818;stroke-width:1.0;"/><polygon fill="#181818" points="162.79,1979.28,163.9061,1969.4946,161.2902,1974.5102,156.2745,1971.8943,162.79,1979.28" style="stroke:#181818;stroke-width:1.0;"/></g><!--link N to *end*--><g id="link_N_*end*"><path d="M397.88,1901.72 C334.27,1925.67 217.5053,1969.6162 181.6953,1983.0962 " fill="none" id="N-to-*end*" style="stroke:#181818;stroke-width:1.0;"/><polygon fill="#181818" points="176.08,1985.21,185.9122,1985.7829,180.7594,1983.4485,183.0938,1978.2958,176.08,1985.21" style="stroke:#181818;stroke-width:1.0;"/></g><!--SRC=[ZLNRIXjH57q_Nx7nKSWFI0d495uIRzX7zK7gK0BjH2PZMoc566bhgI2zGFlIMjeV65EZ8Phn5_RvewwppuoPEN6WUPbpsMUTjTTU-sHhTeTAfJ9LbEg4kw57CtokkppKd_YMU4WSymNc4Lzmh7iyueZu6bCCp7U6TZkq4NZhmPuNq6j5-5MejDT-wGDqNkRpL3hODpEQeqql30ufNSPYTOxud6yuqZrSURNjwoDSUSsNm1_Rm6folfe_NvNpDJ80mlW4CF6sptS0k0JNFW-mVWMe0Ozvo0FPawkmSeLCB50jmQzDuPUfVH1YwI3m7uVjm9Ex_XSTyp4FYEycvDAy7yQz5u7CGHo_q1_vXhA2A46mXN8W7ZtoNhN2ZNRB3yjbzKQfckYpRB1_W8S-5WYmq4VwL7GU0VXMI0zu1DenaZ8Ki3kfiNBkCQ2hQkAMhmBOGsZV7113rBndhHTUqFAVKk89IwRbYqysWlOJhzCnso3t1qpk8EO9iexq6KtHYlGx27YMyvqLOXhFt5AtzQidPQtZacnTwnAq8EC56IzcnaioNf8nCdVmhH0IibWGKclxdWHaIZN3d_LRunjHPverQkU3Nr8yvwHKlszwKFTGjhHCtKJh8fAE8RAGtqNn60AFC-Prk_hXrAPzDh52ZYhbky4-59N3vyXqquCv975hZi8KqdUaAM7BedZJojDCgjkSD6swZjM6Z1j9JCE9QKZCYY6_alXvLRvhgf9y2v9F2QqhjIwHMxCxQkr-XECmzBTKo7phckUFVzlgxLkzeTG0N_EGz67nhjr4RDLz4N98ykRzJFHzBoMCITLpTnStE00Md53fFyD5y34VwMFTrQTcLH-hHHFkz7dXEnkffKoYkel0ViON7v2EkQ5FO1RnNp7S49oMyzBP9x0u1rAcgcvtk2zmJZPZ5VuYVsEnwDr3GcSEFzUtS8Zx3vNFnoGD-o3erwIOQT0aHFuD8fA4WCMNi8rJ14FiriGQYU0lPtkOxrhr3m00]--></g></svg>